<?xml version="1.0" standalone="no"?><!DOCTYPE svg PUBLIC "-//W3C//DTD SVG 1.1//EN" "http://www.w3.org/Graphics/SVG/1.1/DTD/svg11.dtd"><svg t="1724655307072" class="icon" viewBox="0 0 1041 1024" version="1.1" xmlns="http://www.w3.org/2000/svg" p-id="7584" xmlns:xlink="http://www.w3.org/1999/xlink" width="203.3203125" height="200"><path d="M331.793356 859.778169h-96.030373c-18.51878 0-33.531661 11.368136-33.531661 25.374373 0 14.023593 15.012881 25.374373 33.531661 25.374373h4.460475c18.51878 0 33.531661 11.35078 33.531661 25.374373 0 14.006237-15.012881 25.374373-33.531661 25.374373H33.792c-18.51878 0-33.514305 11.368136-33.514305 25.374373 0 14.006237 14.995525 25.374373 33.514305 25.374373H788.965966c18.51878 0 33.531661-11.368136 33.531661-25.374373 0-14.006237-15.012881-25.374373-33.531661-25.374373h-57.291932c-18.51878 0-33.531661-11.368136-33.531661-25.374373 0-14.023593 15.012881-25.374373 33.531661-25.374373h225.019661c18.51878 0 33.531661-11.35078 33.531661-25.374373 0-14.006237-15.012881-25.374373-33.531661-25.374373h-16.783187-608.117152zM927.379525 1018.827932c-15.516203 0-28.11661-12.183864-28.11661-27.196746 0-15.030237 12.600407-27.196746 28.11661-27.196745h86.137492c15.516203 0 28.11661 12.166508 28.11661 27.196745 0 15.012881-12.600407 27.196746-28.11661 27.196746h-86.137492z" fill="#2476FF" p-id="7585"></path><path d="M527.429424 547.006915h-27.995119v-149.625491h27.995119v149.625491z" fill="#0CB04A" p-id="7586"></path><path d="M605.548475 456.270102l-71.784136 71.784135a11.923525 11.923525 0 0 1-16.85261 0 11.958237 11.958237 0 0 1 0-16.85261l71.784135-71.784135a11.906169 11.906169 0 1 1 16.852611 16.85261z" fill="#0CB04A" p-id="7587"></path><path d="M736.846102 221.687322A63.748339 63.748339 0 0 0 673.080407 157.938983c-1.457898 0-2.863729 0.121492-4.304271 0.208271 1.076068-0.93722 2.169492-1.857085 3.193491-2.89844a63.713627 63.713627 0 0 0 0-90.146712 63.713627 63.713627 0 0 0-90.146712 0c-1.041356 1.024-1.943864 2.117424-2.89844 3.193491 0.104136-1.423186 0.225627-2.846373 0.225627-4.304271a63.765695 63.765695 0 0 0-127.514034 0c0 1.457898 0.121492 2.881085 0.225627 4.304271-0.954576-1.076068-1.857085-2.169492-2.898441-3.193491a63.713627 63.713627 0 0 0-90.146712 0 63.713627 63.713627 0 0 0 0 90.146712c1.024 1.041356 2.117424 1.96122 3.193492 2.89844-1.440542-0.08678-2.863729-0.208271-4.304271-0.208271a63.748339 63.748339 0 1 0 0 127.496678c1.440542 0 2.863729-0.121492 4.304271-0.225627-1.076068 0.954576-2.169492 1.874441-3.193492 2.898441a63.748339 63.748339 0 1 0 90.146712 90.164067c1.041356-1.024 1.943864-2.117424 2.898441-3.210847-0.104136 1.423186-0.225627 2.863729-0.225627 4.321627a63.765695 63.765695 0 0 0 127.514034 0c0-1.457898-0.121492-2.898441-0.225627-4.321627 0.954576 1.093424 1.857085 2.186847 2.89844 3.210847a63.748339 63.748339 0 0 0 90.146712-90.164067c-1.024-1.024-2.117424-1.943864-3.193491-2.898441 1.440542 0.104136 2.846373 0.225627 4.304271 0.225627a63.765695 63.765695 0 0 0 63.765695-63.748339z" fill="#FF3A2F" p-id="7588"></path><path d="M544.993627 46.913085c0 1.457898-0.121492 2.881085-0.208271 4.321627 0.93722-1.076068 1.857085-2.186847 2.881085-3.210848a63.453288 63.453288 0 0 1 23.309017-14.665762A63.418576 63.418576 0 0 0 525.641763 1.266983a63.488 63.488 0 0 1 19.351864 45.646102zM637.830508 48.023864a63.765695 63.765695 0 0 1 0 90.164068c-1.024 1.024-2.117424 1.943864-3.210847 2.898441 1.440542-0.104136 2.863729-0.225627 4.321627-0.225627 13.277288 0 25.582644 4.078644 35.787932 11.021017 21.833763-25.04461 21.087458-62.93261-2.759593-86.779661a63.210305 63.210305 0 0 0-34.90278-17.703051c0.242983 0.242983 0.520678 0.381831 0.763661 0.624813zM736.846102 221.687322a63.609492 63.609492 0 0 0-53.508339-62.724339 63.488 63.488 0 0 1 19.351864 45.646102 63.748339 63.748339 0 0 1-63.748339 63.748339c-1.457898 0-2.881085-0.121492-4.321627-0.208271 1.093424 0.93722 2.186847 1.857085 3.210847 2.89844a63.748339 63.748339 0 0 1 0 90.146712 63.57478 63.57478 0 0 1-55.243932 17.703051 63.678915 63.678915 0 0 0 89.383051-0.624814 63.748339 63.748339 0 0 0 0-90.164067c-1.024-1.024-2.117424-1.943864-3.193491-2.898441 1.440542 0.104136 2.846373 0.225627 4.304271 0.225627a63.765695 63.765695 0 0 0 63.765695-63.748339zM417.496949 362.305085c0-1.457898 0.121492-2.881085 0.208271-4.304271-0.93722 1.076068-1.857085 2.169492-2.881084 3.193491a63.592136 63.592136 0 0 1-55.261289 17.703051 63.609492 63.609492 0 0 0 66.09139 14.040949 63.245017 63.245017 0 0 1-8.157288-30.63322zM547.666441 361.194305c-1.024-1.024-1.943864-2.117424-2.881085-3.193491 0.08678 1.423186 0.208271 2.846373 0.208271 4.304271a63.748339 63.748339 0 0 1-63.748339 63.748339c-3.505898 0-6.890305-0.485966-10.24-1.024a63.470644 63.470644 0 0 0 44.379119 18.102237 63.765695 63.765695 0 0 0 63.765695-63.748339c0-0.381831-0.052068-0.746305-0.052068-1.128136a63.279729 63.279729 0 0 1-31.431593-17.060881z" fill="" p-id="7589"></path><path d="M631.044339 221.687322a115.659932 115.659932 0 1 1-231.302508-0.017356 115.659932 115.659932 0 0 1 231.302508 0.017356z" fill="#FBB713" p-id="7590"></path><path d="M588.157831 131.853017a115.62522 115.62522 0 0 1-162.607729 162.590373 115.659932 115.659932 0 0 0 205.494237-72.756068 115.382237 115.382237 0 0 0-42.886508-89.834305z" fill="" p-id="7591"></path><path d="M627.746712 939.303051H422.009492l-131.002577-393.042441h467.742373L627.746712 939.303051z" fill="#142A3B" p-id="7592"></path><path d="M291.006915 546.26061l17.060882 51.217356h217.435118c64.355797 0 109.793627 63.054102 89.435119 124.112271L542.372881 939.303051h85.373831l131.002576-393.042441h-467.742373z" fill="" p-id="7593"></path><path d="M447.245017 858.372339c-7.480407 0-14.405424-4.911729-16.626983-12.461559l-54.636475-184.96217a17.338576 17.338576 0 1 1 33.288678-9.840813l54.636475 184.962169a17.355932 17.355932 0 0 1-16.661695 22.302373z" fill="#EDEDED" p-id="7594"></path></svg>