<?xml version="1.0" standalone="no"?><!DOCTYPE svg PUBLIC "-//W3C//DTD SVG 1.1//EN" "http://www.w3.org/Graphics/SVG/1.1/DTD/svg11.dtd"><svg t="1722333154837" class="icon" viewBox="0 0 1024 1024" version="1.1" xmlns="http://www.w3.org/2000/svg" p-id="1501" xmlns:xlink="http://www.w3.org/1999/xlink" width="200" height="200"><path d="M685.6 378.7s53.3 86.1 0 152.7c-76.4 95.5-171.8 19.1-171.8 19.1s76.4 0 114.5-38.2c57.3-57.2 57.3-133.6 57.3-133.6z" fill="#FDDA09" p-id="1502"></path><path d="M361 512.4c0 57.3 113.8 206.3 286.4 171.8C838.3 646 876.5 512.4 876.5 512.4s-38.2 229.1-229.1 229.1C341.9 741.5 361 512.4 361 512.4z" fill="#FDDA09" p-id="1503"></path><path d="M666.5 149.7c-95.5-19.1-381.8 38.2-458.2 248.2-88.7 244 57.3 381.8 57.3 381.8S132 646 132 493.3s171.8-362.7 362.7-362.7 171.8 19.1 171.8 19.1zM595.6 908.2c76.4 0 299.9-128.5 299.9-204.9 0 0 42.6 12.5 26.2 47.7-34.3 73.8-180.3 157.2-284.5 157.2h-41.6z" fill="#FDDA09" p-id="1504"></path><path d="M637.873 212.91l44.194-44.194 58.972 58.972-44.194 44.193zM647.77 540.849l44.194 44.193-44.193 44.194-44.194-44.194zM281.341 411.102l62.307 4.932-8.286 104.674-62.306-4.932zM370.559 844.05l23.925-57.738 73.996 30.662-23.925 57.738z" fill="#399639" p-id="1505"></path><path d="M608 767.7c-79.6 0-154.5-31-210.7-87.3-45.6-45.6-70.7-106.2-70.7-170.7s25.1-125.1 70.7-170.7c37-37 86.3-57.4 138.7-57.4 52.4 0 101.6 20.4 138.7 57.4 30.2 30.2 46.8 70.4 46.8 113.1s-16.6 82.9-46.8 113.1c-24.7 24.7-57.6 38.3-92.6 38.3-35 0-67.9-13.6-92.6-38.3-19.3-19.3-28.2-46.3-25.5-78.1 2-23.5 10.4-49.5 23.2-71.3 28.6-48.7 64.2-76.1 105.9-81.5 9.1-1.2 18-1.2 26.4-0.4-25.1-14.6-53.7-22.4-83.5-22.4-44.4 0-86.1 17.3-117.5 48.7-82.4 82.4-82.4 216.6 0 299 50.6 50.6 117.9 78.5 189.5 78.5s138.9-27.9 189.5-78.5c31.4-31.4 55-68.7 70.1-110.8 14.3-40 20.4-82.3 18-125.8-2.4-43.4-13.6-86.7-32.4-125-19.6-40-46.4-73.8-79.8-100.5-39-31.2-94.8-54.1-157.1-64.5-8.2-1.4-13.7-9.1-12.3-17.3 1.4-8.2 9.1-13.7 17.3-12.3 67.3 11.3 128 36.4 170.9 70.7 36.9 29.5 66.5 66.7 88 110.7 20.5 41.9 32.7 89.2 35.4 136.6 2.6 47.5-4 93.8-19.7 137.6-16.6 46.3-42.6 87.3-77.2 121.9-56.3 56.2-131.1 87.2-210.7 87.2z m-0.5-404.3c-3.5 0-7.1 0.2-10.6 0.7-32 4.1-60.2 26.6-83.9 66.9-14.7 25.1-34.2 81.1-2.3 113 19.1 19.1 44.4 29.6 71.4 29.6 27 0 52.3-10.5 71.4-29.6 24.5-24.5 38.1-57.2 38.1-91.9 0-22-5.4-43.2-15.7-62-0.3-0.2-0.5-0.5-0.8-0.8-9.3-9.1-36.5-25.9-67.6-25.9zM360.4 165.8c-5.6 0-11-3.2-13.6-8.6-3.5-7.5-0.3-16.4 7.2-20 52.5-24.7 110.1-38.3 171.4-40.5 8.3-0.3 15.2 6.2 15.5 14.5 0.3 8.3-6.2 15.2-14.5 15.5-57.2 2-111 14.7-159.7 37.6-1.9 1.1-4.1 1.5-6.3 1.5z" fill="" p-id="1506"></path><path d="M486.5 915.1c-1.1 0-2.2-0.1-3.3-0.4-75.7-16.8-147.6-50-208-95.9C211.7 770.4 164 710 137.5 644c-32.5-80.9-49.4-210.1 54.7-366.3 24-36.1 52.9-67.5 85.7-93.4 6.5-5.1 15.9-4 21.1 2.5 5.1 6.5 4 15.9-2.5 21.1-30.4 23.9-57.1 53-79.4 86.5-76.7 115-94.6 232.1-51.8 338.5 24.5 61 68.8 117.1 128 162.1 57 43.4 124.9 74.7 196.4 90.5 8.1 1.8 13.2 9.8 11.4 17.9-1.5 6.9-7.7 11.7-14.6 11.7zM593.9 927c-8.3 0-16.6-0.2-24.9-0.6-8.3-0.4-14.6-7.5-14.2-15.8s7.5-14.7 15.8-14.2c62.8 3.2 123.1-6.5 179.2-29 40.6-16.3 78.1-38.3 118.1-69.5 24.3-18.9 37.6-38.9 39.6-59.5 2.2-23.1-10.8-40.4-12.6-42.7l-47.3-47.3c-5.9-5.9-5.9-15.4 0-21.2 5.9-5.9 15.4-5.9 21.2 0l48.1 48.1 0.3 0.4c1 1.1 23.7 27.7 20.1 65.6-2.8 29.1-20 56.1-51 80.3-41.7 32.5-82.7 56.6-125.4 73.7-52.6 21.1-108.7 31.7-167 31.7z" fill="" p-id="1507"></path></svg>